<svg width="181" height="20" viewBox="0 0 181 20" fill="none" xmlns="http://www.w3.org/2000/svg">
<path d="M85.6307 7.32532L81.9657 13.407H80.9397L77.1937 7.40672V15.9243H75.1573V4.4809H77.7308L81.5097 10.7097L85.2557 4.4809H87.6663V15.9251H85.63L85.6307 7.32532Z" fill="white"/>
<path d="M96.2035 4.48103L100.894 15.9252H98.7279L97.6365 13.2115H92.4076L91.3325 15.9252H89.2641L93.8904 4.48103H96.2035ZM93.1412 11.3311H96.8873L95.0138 6.63918L93.1412 11.3311Z" fill="white"/>
<path d="M104.543 12.3609V15.9252H102.507V4.48103H106.302C109.902 4.48103 111.433 5.77293 111.433 8.35599C111.433 11.0212 109.641 12.3616 106.302 12.3616L104.543 12.3609ZM104.543 6.36063V10.4805H106.449C108.338 10.4805 109.315 9.85922 109.315 8.30595C109.315 6.8998 108.469 6.36063 106.481 6.36063H104.543Z" fill="white"/>
<path d="M115.715 15.9244H113.678V4.48103H115.715V9.2872H117.425L121.09 4.48103H123.566L119.218 9.92494L124.267 15.9252H121.661L117.524 10.9712H115.716L115.715 15.9244Z" fill="white"/>
<path d="M133.164 10.9712H127.919V14.0448H133.945V15.9252H125.882V4.48103H133.766V6.36138H127.918V9.09155H133.163L133.164 10.9712Z" fill="white"/>
<path d="M144.838 6.36052H140.993V15.9243H138.957V6.36052H135.178V4.48017H144.838V6.36052Z" fill="white"/>
<path d="M148.586 13.0306L154.808 4.48017H157.023V15.9243H154.987V7.24319L148.732 15.9243H146.549V4.48091H148.584V13.0306H148.586Z" fill="white"/>
<path d="M168.262 10.9712H162.023V15.9252H159.987V4.48103H162.023V9.09155H168.262V4.48103H170.298V15.9252H168.262V10.9712Z" fill="white"/>
<path d="M181.001 6.36063H175.3V15.9244H173.264V4.48103H181.001V6.36063Z" fill="white"/>
<path d="M55.0427 6.38505L57.6192 4.47931H48.9976V15.9235H57.6192V14.0185H51.458V11.0882H56.713V9.18318H51.458V6.38505H55.0427Z" fill="white"/>
<path d="M42.4909 8.94048H39.497V6.38505H44.2765L46.8523 4.47931H37.0373V15.9235H42.174C45.0555 15.9235 46.708 14.6129 46.708 12.3285C46.708 10.1443 45.2103 8.94048 42.4909 8.94048ZM42.0631 14.0185H39.4978V10.8462H42.0631C43.6248 10.8462 44.3517 11.3772 44.3517 12.4323C44.3517 13.5107 43.5816 14.0185 42.0631 14.0185Z" fill="white"/>
<path d="M64.606 4.48017H59.912V15.9243H62.3725V12.6826H64.606C67.6014 12.6826 69.4622 11.1017 69.4622 8.57542C69.4622 6.04912 67.6014 4.48017 64.606 4.48017ZM64.5532 10.7769H62.3725V6.38516H64.5532C66.1297 6.38516 66.998 7.16479 66.998 8.58065C66.998 9.99726 66.1297 10.7769 64.5532 10.7769Z" fill="white"/>
<path d="M32.8162 13.4451C32.1853 13.7946 31.4509 13.9791 30.692 13.9791C28.4741 13.9791 26.8641 12.39 26.8641 10.2005C26.8641 8.01094 28.4741 6.42182 30.692 6.42182C31.5313 6.42182 32.2835 6.65855 32.93 7.12453L34.6948 5.81918L34.578 5.71613C33.5475 4.80732 32.1711 4.32715 30.5968 4.32715C28.8893 4.32715 27.3395 4.90514 26.2332 5.95435C25.1201 7.01027 24.5078 8.49484 24.5078 10.1362C24.5078 11.7851 25.1186 13.2921 26.2272 14.3801C27.3395 15.4711 28.8856 16.0723 30.5812 16.0723C32.3549 16.0723 33.9032 15.4517 34.953 14.3226C34.1427 13.7237 33.3608 13.1449 33.3608 13.1449L32.8162 13.4451Z" fill="white"/>
<path d="M17.2993 4.08045C17.7556 4.67126 18.1454 5.31653 18.4566 6.00537L9.65782 12.5074L5.98212 10.1968V7.41702L9.65782 9.7277L17.2993 4.08045Z" fill="white"/>
<path d="M2.23021 9.99975C2.23021 9.87479 2.23341 9.75112 2.2398 9.62745L0.0121417 9.51595C0.00447336 9.67615 0 9.83763 0 9.99975C0 12.6737 1.0806 15.0946 2.82834 16.8465L4.40802 15.2625C3.06286 13.9143 2.23021 12.0528 2.23021 9.99975Z" fill="white"/>
<path d="M9.65615 2.55388C9.78076 2.55388 9.9041 2.55836 10.0274 2.56413L10.1386 0.32907C9.97886 0.32138 9.81783 0.316895 9.65615 0.316895C6.98949 0.316895 4.57523 1.40046 2.82813 3.15301L4.40781 4.73703C5.75232 3.38882 7.60934 2.55388 9.65615 2.55388Z" fill="white"/>
<path d="M9.65351 17.4465C9.5289 17.4465 9.40557 17.4433 9.28223 17.4369L9.17104 19.6707C9.3308 19.6783 9.49183 19.6828 9.65351 19.6828C12.3202 19.6828 14.7344 18.5993 16.4815 16.8467L14.9019 15.2627C13.5573 16.6109 11.701 17.4465 9.65351 17.4465Z" fill="white"/>
<path d="M13.8432 3.85338L15.7213 2.46545C14.0636 1.12236 11.9535 0.316895 9.65615 0.316895V2.55388C11.2084 2.55388 12.6507 3.03382 13.8432 3.85338Z" fill="white"/>
<path d="M19.3094 9.99974C19.3094 9.40765 19.2564 8.82774 19.1548 8.26513L17.076 9.80109C17.0779 9.86709 17.0785 9.9331 17.0785 9.99974C17.0785 12.1861 16.1341 14.1552 14.6323 15.5188L16.1309 17.1797C18.0831 15.4086 19.3094 12.848 19.3094 9.99974Z" fill="white"/>
<path d="M9.65675 17.4458C7.47639 17.4458 5.51265 16.4987 4.15279 14.9929L2.49643 16.4955C4.26335 18.4525 6.81691 19.6821 9.65675 19.6821V17.4458Z" fill="white"/>
<path d="M4.67642 4.48198L3.17789 2.82106C1.2263 4.59284 0 7.15342 0 10.0011H2.23085C2.23021 7.81471 3.1747 5.84557 4.67642 4.48198Z" fill="white"/>
</svg>
